# xmcd
#
# Track frame offsets:
#	150
#	11754
#	26559
#	42968
#	56436
#	64485
#	79595
#	92882
#	103994
#	118614
#
# Disc length: 1700 seconds
#
# Revision: 2
# Processed by: cddbd v1.5.2PL0 Copyright (c) Steve Scherf et al.
# Submitted via: audiograbber 1.83.01
#
DISCID=8306a20a
DTITLE=Various Artist - The Roots of Johnny Cash
DYEAR=2012
DGENRE=Country
TTITLE0=Roy Hogsed - Cocaine Blues
TTITLE1=Gordon Jenkins - Crescent City Blues (Folsom Prison Blues)
TTITLE2=Peter LaFarge - The Ballad Of Ira Hayes
TTITLE3=Leadbelly and The Golden Gate Quartet - Pick A Bale Of Cotton
TTITLE4=Leadbelly - On A Monday (I Got Stripes)
TTITLE5=Paul Robeson - Drink To Me Only With Thine Eyes
TTITLE6=Johnny Western - Delia's Gone
TTITLE7=Earl Robinson - The Frozen Logger
TTITLE8=Jimmie Skinner - Doin' My Time
TTITLE9=Anita Carter - (Love's) Rinf Of Fire
EXTD=Rock Classics Nr. 8 - Johnny Cash - Das Sonderheft
EXTT0=(T. J. Arnell) 1947
EXTT1=(Gordon Jenkins) 1953
EXTT2=(Peter LaFarge) 1961
EXTT3=(Leadbelly) 1940
EXTT4=(Leadbelly) 1943
EXTT5=(Public Domain) 1939
EXTT6=(K. Silbersdorf, D. Toops) 1959
EXTT7=(James Stevens) 1941
EXTT8=(Jimmie Skinner) 1958
EXTT9=(Merle Kilgore, June Carter) 1962
PLAYORDER=
